<?xml version="1.0" encoding="UTF-8" standalone="no" ?>
<!DOCTYPE svg PUBLIC "-//W3C//DTD SVG 1.1//EN" "http://www.w3.org/Graphics/SVG/1.1/DTD/svg11.dtd">
<svg xmlns="http://www.w3.org/2000/svg" xmlns:xlink="http://www.w3.org/1999/xlink" version="1.1" width="164.14685314685315" height="186.7545260931373" viewBox="176.29705849208267 116.88562776701885 164.14685314685315 186.7545260931373" xml:space="preserve">
<desc>Created with Fabric.js 4.6.0</desc>
<defs>
</defs>
<g transform="matrix(1 0 0 1 258.37 210.26)" id="Pzcf2z2LJg4_ijDeOkTZn"  >
<path style="stroke: rgb(14,30,47); stroke-width: 1; stroke-dasharray: none; stroke-linecap: butt; stroke-dashoffset: 0; stroke-linejoin: miter; stroke-miterlimit: 4; fill: rgb(255,255,255); fill-opacity: 0; fill-rule: nonzero; opacity: 1;" vector-effect="non-scaling-stroke"  transform=" translate(0, 0)" d="M -76.57343 -43.12202 L -0.94144 -87.87726 L 76.57343 -43.122020000000006 L 76.57343 46.38847 L 0.0843100000000021 87.87726 L -76.57342 46.388470000000005 z" stroke-linecap="round" />
</g>
<g transform="matrix(1 0 0 1 257.74 222.37)" id="AWZpe08bjLKGf4vnJ3snC"  >
<path style="stroke: rgb(14,30,47); stroke-width: 1; stroke-dasharray: none; stroke-linecap: butt; stroke-dashoffset: 0; stroke-linejoin: miter; stroke-miterlimit: 4; fill: rgb(255,255,255); fill-opacity: 0; fill-rule: nonzero; opacity: 1;" vector-effect="non-scaling-stroke"  transform=" translate(0, 0)" d="M -48.6014 -43.33774 L 48.6014 -43.33774 L 0.2900199999999984 43.33774 z" stroke-linecap="round" />
</g>
<g transform="matrix(1 0 0 1 195.52 173.09)" id="WbiarHvYXjvtzIs0V3K3X"  >
<path style="stroke: rgb(14,30,47); stroke-width: 1; stroke-dasharray: none; stroke-linecap: butt; stroke-dashoffset: 0; stroke-linejoin: miter; stroke-miterlimit: 4; fill: rgb(255,255,255); fill-opacity: 0; fill-rule: nonzero; opacity: 1;" vector-effect="non-scaling-stroke"  transform=" translate(0, 0)" d="M 13.51866 5.76478 L -13.518650000000001 -5.76479" stroke-linecap="round" />
</g>
<g transform="matrix(1 0 0 1 271.71 150.92)" id="PcqswybWn5Z5bIiOBAa-9"  >
<path style="stroke: rgb(14,30,47); stroke-width: 1; stroke-dasharray: none; stroke-linecap: butt; stroke-dashoffset: 0; stroke-linejoin: miter; stroke-miterlimit: 4; fill: rgb(255,255,255); fill-opacity: 0; fill-rule: nonzero; opacity: 1;" vector-effect="non-scaling-stroke"  transform=" translate(0, 0)" d="M -62.91342 28.23788 L -14.52288 -28.237889999999997 L 34.78938 27.91168 L 62.913430000000005 16.698909999999998" stroke-linecap="round" />
</g>
<g transform="matrix(1 0 0 1 296.35 238.41)" id="j83lWSzhjd1ZKZhPT4L9V"  >
<path style="stroke: rgb(14,30,47); stroke-width: 1; stroke-dasharray: none; stroke-linecap: butt; stroke-dashoffset: 0; stroke-linejoin: miter; stroke-miterlimit: 4; fill: rgb(255,255,255); fill-opacity: 0; fill-rule: nonzero; opacity: 1;" vector-effect="non-scaling-stroke"  transform=" translate(0, 0)" d="M 10.24029 -59.60936 L 38.27387 18.111560000000004 L -38.27387999999999 27.805000000000007 L -37.89446999999999 59.60936000000001" stroke-linecap="round" />
</g>
<g transform="matrix(1 0 0 1 220.04 222.29)" id="M4GJ9Xk3QaUP0uODRbhsp"  >
<path style="stroke: rgb(14,30,47); stroke-width: 1; stroke-dasharray: none; stroke-linecap: butt; stroke-dashoffset: 0; stroke-linejoin: miter; stroke-miterlimit: 4; fill: rgb(255,255,255); fill-opacity: 0; fill-rule: nonzero; opacity: 1;" vector-effect="non-scaling-stroke"  transform=" translate(0, 0)" d="M 38.0714 43.91755 L -38.07139000000001 33.85212 L -10.81759000000001 -43.91754" stroke-linecap="round" />
</g>
</svg>